<svg xmlns="http://www.w3.org/2000/svg"><defs><font id="SpaceMono" horiz-adv-x="612"><font-face font-family="Space Mono" panose-1="2 0 8 9 3 0 0 2 0 4" ascent="1120" descent="-361" alphabetic="0"/><glyph glyph-name="space"/><glyph unicode="!" glyph-name="exclam" d="M372 700V212H240v488h132Zm29-619q0-20-7-37t-21-30-30-20-37-8q-20 0-37 7t-30 20-20 30-8 38q0 20 7 37t21 30 30 20 37 8q19 0 36-7t31-20 20-30 8-38Z"/><glyph unicode="&quot;" glyph-name="quotedbl" d="M459 408h-80v125q-24 11-39 34t-16 53q0 19 7 36t21 30 30 20 37 8q19 0 36-7t31-20 20-30 8-37q0-29-15-52t-40-35V408Zm-226 0h-80v125q-24 11-39 34t-16 53q0 19 7 36t21 30 30 20 37 8q19 0 36-7t31-20 20-30 8-37q0-29-15-52t-40-35V408Z"/><glyph unicode="#" glyph-name="numbersign" d="M344 90v114h-76V90H160v114H58v108h102v76H58v108h102v114h108V496h76v114h108V496h102V388H452v-76h102V204H452V90H344Zm0 298h-76v-76h76v76Z"/><glyph unicode="$" glyph-name="dollar" d="M354 606q68-14 105-56t37-100v-14H382v14q0 12-6 23t-22 20v-90q154-21 154-147v-6q0-67-40-109T354 90V28h-96v65q-41 7-70 23t-47 40-28 51-9 59v20h114v-14q0-23 9-40t31-27v108q-69 12-108 45t-40 96v6q0 34 12 59t32 44 47 30 57 16v63h96v-66Zm40-358q0 15-7 27t-33 21v-95q23 7 31 20t9 27ZM224 460q0-14 6-23t28-18v79q-18-6-26-16t-8-22Z"/><glyph unicode="%" glyph-name="percent" d="M338 562q0-36-13-63t-34-47-49-30-57-10q-29 0-56 10t-49 29-35 47-13 64q0 36 13 63t34 47 49 30 57 10q29 0 56-10t49-29 35-47 13-64Zm-153-66q25 0 44 17t19 49q0 32-19 49t-44 17q-25 0-44-17t-19-49q0-32 19-49t44-17Zm395-358q0-36-13-63t-34-47-49-30-57-10q-29 0-56 10t-49 29-35 47-13 64q0 36 13 63t34 47 49 30 57 10q29 0 56-10t49-29 35-47 13-64ZM427 72q25 0 44 17t19 49q0 32-19 49t-44 17q-25 0-44-17t-19-49q0-32 19-49t44-17Zm94 438 41-78L90 190l-41 78 472 242Z"/><glyph unicode="&amp;" glyph-name="ampersand" d="M373 294H262q-42 0-68-21t-26-63v-6q0-42 26-63t68-21h111v174Zm126 202v-82h92V288h-92V0H249q-50 0-89 14T95 52t-39 58-14 73v12q0 60 33 96t85 51v18q-51 14-84 50t-34 96v12q0 39 13 72t40 58 65 38 89 14h109V580h-96q-42 0-68-19t-26-61v-6q0-42 26-61t68-19h111v82h126Z"/><glyph unicode="'" glyph-name="quotesingle" d="M267 533q-25 11-40 34t-16 53q0 19 7 36t21 30 30 20 37 8q19 0 36-7t30-20 20-30 8-37q0-29-15-52t-40-35V408h-78v125Z"/><glyph unicode="(" glyph-name="parenleft" d="M570-30v-126h-42q-74 0-140 21T271-68 192 49t-30 169v264q0 98 29 169t80 116 116 67 141 22h42V730h-36q-52 0-96-14t-76-45-51-79-19-118V226q0-69 18-117t51-80 77-45 96-14h36Z"/><glyph unicode=")" glyph-name="parenright" d="M78-30q52 0 96 14t76 45 51 79 19 118v248q0 69-18 117t-51 80-77 45-96 14H42v126h42q74 0 140-21t117-67 79-117 30-169V218q0-98-29-169T341-67t-116-67-141-22H42v126h36Z"/><glyph unicode="*" glyph-name="asterisk" d="m448 141-73 73-33 74-16-7 28-73V102h-96v106l28 73-16 7-33-74-73-73-67 67 73 73 74 33-7 16-73-28H58v96h106l73-28 7 16-74 33-73 73 67 67 73-73 33-74 16 7-28 73v106h96V492l-28-73 16-7 33 74 73 73 67-67-73-73-74-33 7-16 73 28h106v-96H448l-73 28-7-16 74-33 73-73-67-67Z"/><glyph unicode="+" glyph-name="plus" d="M97 407h152v152h114V407h152V293H363V141H249v152H97v114Z"/><glyph unicode="," glyph-name="comma" d="M211 81q0 19 7 36t21 30 30 20 37 8q19 0 36-7t31-20 20-30 8-37V-41q0-38-25-64t-64-26h-64v78h48q27 0 27 30v12q-8-3-17-3-20 0-37 7t-30 21-20 30-8 37Z"/><glyph unicode="-" glyph-name="hyphen" d="M150 332h312V218H150v114Z"/><glyph unicode="." glyph-name="period" d="M401 81q0-20-7-37t-21-30-30-20-37-8q-20 0-37 7t-30 20-20 30-8 38q0 20 7 37t21 30 30 20 37 8q19 0 36-7t31-20 20-30 8-38Z"/><glyph unicode="/" glyph-name="slash" d="m399 825 114-36-299-914L99-89l300 914Z"/><glyph unicode="0" glyph-name="zero" d="M222 350q0 34 25 59t59 25q34 0 59-25t25-59q0-34-25-59t-59-25q-34 0-59 25t-25 59ZM48 428q0 136 68 211t190 75q121 0 189-75t69-211V272q0-140-68-213T306-14q-121 0-189 73T48 272v156Zm258-322q36 0 60 11t39 33 21 50 6 64v172q0 33-7 62t-22 50-39 33-58 13q-34 0-58-12t-39-34-22-50-7-62V264q0-35 6-64t21-50 39-32 60-12Z"/><glyph unicode="1" glyph-name="one" d="M264 126v508h-18l-66-240H54v12l84 294h258V126h174V0H66v126h198Z"/><glyph unicode="2" glyph-name="two" d="M557 126V0H65v138q0 55 16 94t47 66 74 44 97 30q40 9 65 20t41 26 20 32 6 40q0 42-30 70t-85 28q-57 0-91-34t-34-96v-44H59v56q0 49 17 93t50 78 80 53 106 20q63 0 110-18t78-49 47-69 16-82v-12q0-88-49-146t-162-84q-47-11-77-22t-48-26-23-30-7-38v-12h360Z"/><glyph unicode="3" glyph-name="three" d="M238 300v208l174 48v18H64v126h456V480l-186-54v-18h24q37 0 73-11t63-36 45-59 17-84v-12q0-47-15-87t-46-69-76-47-103-17q-59 0-107 19t-81 52-52 76-18 91v42h132v-36q0-48 31-83t93-35q53 0 81 27t29 71q0 47-30 68t-78 22h-78Z"/><glyph unicode="4" glyph-name="four" d="M232 700h250V258h102V132H482V0H350v132H38v182l194 386Zm-80-424v-18h198v376h-18L152 276Z"/><glyph unicode="5" glyph-name="five" d="M66 312v388h468V574H198V384h18q14 39 52 67t104 29q49 0 88-17t66-47 41-72 15-92v-6q0-53-17-100t-51-82-83-57-113-21q-64 0-113 17t-82 49-51 75-18 95v24h132v-12q0-53 32-87t96-35q63 0 99 34t37 94q0 57-27 85t-71 29q-29 0-47-12t-23-30H66Z"/><glyph unicode="6" glyph-name="six" d="M411 502q0 35-25 60t-80 26q-54 0-85-31t-32-83v-90h18q17 35 55 56t86 22q43 0 81-15t66-44 44-70 16-93v-12q0-53-17-97t-50-77-79-50-103-18q-52 0-97 17t-79 47-53 73-20 94v255q0 55 20 100t54 76 78 49 95 17q50 0 93-14t76-42 51-67 19-89H411ZM306 112q51 0 84 30t33 82q0 51-33 81t-84 31q-51 0-84-30t-33-82q0-51 33-81t84-31Z"/><glyph unicode="7" glyph-name="seven" d="M60 700h492V494L299 124q-20-30-31-51t-12-49V0H114v30q0 20 3 36t9 32 18 34 27 42l261 382v18H60v126Z"/><glyph unicode="8" glyph-name="eight" d="M306-14q-59 0-106 14t-80 41-51 61-18 80v6q0 37 10 65t28 48 40 33 46 20v18q-21 8-40 21t-34 31-23 44-9 58v6q0 43 20 77t53 57 75 36 89 12q46 0 88-12t76-35 53-58 20-77v-6q0-32-8-57t-23-44-34-32-41-21v-18q24-7 46-20t39-33 28-48 11-65v-6q0-44-18-80t-51-61-80-40-106-15Zm0 126q59 0 91 26t32 68q0 41-32 67t-91 27q-59 0-91-26t-32-68q0-41 32-67t91-27Zm0 476q-45 0-75-23t-30-58q0-35 30-58t75-23q45 0 75 23t30 58q0 35-30 58t-75 23Z"/><glyph unicode="9" glyph-name="nine" d="M201 198q0-35 25-60t80-26q54 0 85 31t32 83v90h-18q-14-35-46-56t-91-22q-45 0-83 16t-67 47-45 72-16 93v12q0 50 18 93t50 75 79 50 104 18q52 0 97-17t79-47 52-73 19-94V228q0-57-19-102t-52-76-77-47-97-17q-51 0-95 14t-76 42-51 67-19 89h132Zm105 390q-51 0-84-30t-33-82q0-51 33-81t84-31q51 0 84 30t33 82q0 51-33 81t-84 31Z"/><glyph unicode=":" glyph-name="colon" d="M401 81q0-20-7-37t-21-30-30-20-37-8q-20 0-37 7t-30 20-20 30-8 38q0 20 7 37t21 30 30 20 37 8q19 0 36-7t31-20 20-30 8-38Zm0 334q0-20-7-37t-21-30-30-20-37-8q-20 0-37 7t-30 20-20 30-8 38q0 20 7 37t21 30 30 20 37 8q19 0 36-7t31-20 20-30 8-38Z"/><glyph unicode=";" glyph-name="semicolon" d="M211 81q0 20 7 37t21 30 30 20 37 8q19 0 36-7t31-20 20-30 8-38V-41q0-38-25-64t-64-26h-64v78h48q27 0 27 30v12q-8-3-17-3-20 0-37 7t-30 20-20 30-8 38Zm190 334q0-20-7-37t-21-30-30-20-37-8q-20 0-37 7t-30 20-20 30-8 38q0 20 7 37t21 30 30 20 37 8q19 0 36-7t31-20 20-30 8-38Z"/><glyph unicode="&lt;" glyph-name="less" d="M97 246v208l418 116V450l-340-91v-18l340-91V130L97 246Z"/><glyph unicode="=" glyph-name="equal" d="M97 494h418V380H97v114Zm0-174h418V206H97v114Z"/><glyph unicode="&gt;" glyph-name="greater" d="M97 130v120l340 91v18L97 450v120l418-116V246L97 130Z"/><glyph unicode="?" glyph-name="question" d="M328 390q43 0 67 27t25 71q0 42-29 71t-79 29q-27 0-48-9t-36-26-22-38-8-45v-42H66v54q0 45 16 87t48 74 78 51 106 20q53 0 97-17t75-49 49-72 17-90v-6q0-41-12-78t-36-65-57-45-76-17q-14 0-21-8t-7-22v-33H217v86q0 39 26 65t66 27h19Zm48-309q0-20-7-37t-21-30-30-20-37-8q-20 0-37 7t-30 20-20 30-8 38q0 20 7 37t21 30 30 20 37 8q19 0 36-7t31-20 20-30 8-38Z"/><glyph unicode="@" glyph-name="at" d="M60 510v120h314q98 0 156-52t58-156V82q0-42-26-69t-69-27H370q-38 0-55 16t-21 40h-18q-9-23-32-39t-68-17q-35 0-64 13T61 40t-34 70-13 99v6q0 57 13 99t36 69 53 41 66 14q38 0 58-14t30-36h18v36h120V128q0-28 27-28h6q27 0 27 28v262q0 120-120 120H60Zm152-410q41 0 58 30t18 79v6q0 48-17 78t-59 31q-38 0-58-30t-20-79v-6q0-48 20-78t58-31Z"/><glyph unicode="A" glyph-name="A" d="M425 150H187L153 0H15l167 700h248L597 0H459l-34 150ZM215 276h181l-81 358h-18l-82-358Z"/><glyph unicode="B" glyph-name="B" d="M46 126h66v448H46v126h307q50 0 88-14t65-38 40-57 14-73v-12q0-60-33-96t-85-50v-18q51-14 84-50t34-97v-12q0-39-13-72t-40-58-65-39-89-14H46v126Zm198 0h96q42 0 68 18t26 60v6q0 42-26 60t-68 18h-96V126Zm0 288h96q42 0 68 17t26 60v6q0 42-26 59t-68 18h-96V414Z"/><glyph unicode="C" glyph-name="C" d="M308 106q38 0 62 11t38 31 19 45 5 53v18h132v-18q0-125-65-192T308-14q-120 0-190 73T48 272v156q0 67 18 120t52 90 82 56 108 20q62 0 110-18t80-52 49-82 17-108v-18H432v18q0 25-6 50t-20 45-38 32-60 13q-33 0-57-12t-40-34-23-50-8-60V262q0-34 7-62t22-50 39-32 60-12Z"/><glyph unicode="D" glyph-name="D" d="M46 700h254q130 0 193-60t63-188V248q0-127-63-187T300 0H46v127h66v447H46v126Zm254-574q69 0 96 32t28 102v192q0 60-27 91t-97 31h-56V126h56Z"/><glyph unicode="E" glyph-name="E" d="M82 700h442V574H214V414h298V288H214V126h322V0H82v700Z"/><glyph unicode="F" glyph-name="F" d="M88 700h448V574H220V414h310V288H220V0H88v700Z"/><glyph unicode="G" glyph-name="G" d="M260 354h300V0H440v78h-18q-12-39-46-65T274-14q-48 0-90 18t-73 53-49 88-18 123v164q0 68 19 120t54 89 83 54 106 19q60 0 107-19t80-54 50-81 17-100v-12H428v12q0 63-32 95t-92 33q-56 0-92-37t-36-129V274q0-162 132-162 59 0 89 31t31 85H260v126Z"/><glyph unicode="H" glyph-name="H" d="M61 700h132V414h226v286h132V0H419v288H193V0H61v700Z"/><glyph unicode="I" glyph-name="I" d="M72 700h468V574H372V126h168V0H72v126h168v448H72v126Z"/><glyph unicode="J" glyph-name="J" d="M517 210q0-109-59-166T296-14q-53 0-96 14t-74 43-48 70-17 97v66h132v-66q0-47 26-73t73-27q44 0 68 26t25 74v366h-72v124h264V576h-60V210Z"/><glyph unicode="K" glyph-name="K" d="M209 0H77v700h132V413h29l185 287h149v-6L356 359v-18L584 6V0H429L238 287h-29V0Z"/><glyph unicode="L" glyph-name="L" d="M82 700h132V126h318V0H82v700Z"/><glyph unicode="M" glyph-name="M" d="M22 700h232l40-526V72h24v102l40 526h232V0H470v468l12 160h-24L406 0H208l-54 628h-24l12-160V0H22v700Z"/><glyph unicode="N" glyph-name="N" d="M401 66h18v634h132V0H293l-82 634h-18V0H61v700h258l82-634Z"/><glyph unicode="O" glyph-name="O" d="M48 428q0 136 68 211t190 75q121 0 189-75t69-211V272q0-140-68-213T306-14q-121 0-189 73T48 272v156Zm258-322q36 0 60 11t39 33 21 50 6 64v172q0 33-7 62t-22 50-39 33-58 13q-34 0-58-12t-39-34-22-50-7-62V264q0-35 6-64t21-50 39-32 60-12Z"/><glyph unicode="P" glyph-name="P" d="M204 264V0H72v700h274q54 0 94-17t66-46 40-65 14-75v-24q0-39-13-76t-40-67-67-48-94-18H204Zm0 126h129q44 0 69 24t26 62v12q0 38-25 62t-70 24H204V390Z"/><glyph unicode="Q" glyph-name="Q" d="M243-8Q150 9 99 80T48 272v156q0 136 68 211t190 75q121 0 189-75t69-211V272q0-121-51-192T369-8v-18q0-28 25-28h62v-120H338q-41 0-68 27t-27 69v70Zm63 114q36 0 60 12t39 33 21 50 6 65v168q0 33-7 62t-22 51-39 34-58 13q-34 0-58-12t-39-35-22-51-7-62V266q0-35 6-64t21-51 39-33 60-12Z"/><glyph unicode="R" glyph-name="R" d="M543 0H411v210q0 24-12 39t-42 15H205V0H73v700h268q54 0 95-15t68-41 42-62 15-75v-24q0-43-23-80t-71-58v-18q35-4 55-27t21-58V0ZM205 390h126q48 0 73 22t25 64v12q0 35-25 60t-73 26H205V390Z"/><glyph unicode="S" glyph-name="S" d="M426 486q0 42-32 73t-92 31q-50 0-79-20t-29-56q0-18 7-32t24-26 46-21 73-17q110-20 168-67t58-139v-12q0-49-17-88t-51-68-80-43-106-15q-69 0-121 19t-88 54-53 81-18 102v30h132v-24q0-63 36-100t114-38q60 0 89 26t29 62q0 17-6 32t-21 28-41 23-66 17q-53 9-97 23t-76 39-51 60-18 88v6q0 43 17 79t49 64 76 42 100 15q62 0 110-17t80-48 49-69 17-82v-36H426v24Z"/><glyph unicode="T" glyph-name="T" d="M54 700h504V574H372V0H240v574H54v126Z"/><glyph unicode="U" glyph-name="U" d="M558 700V242q0-120-63-188T306-14q-125 0-188 68T54 242v458h132V242q0-62 29-97t91-35q62 0 91 35t29 97v458h132Z"/><glyph unicode="V" glyph-name="V" d="M24 700h136L297 66h18l137 634h136L430 0H182L24 700Z"/><glyph unicode="W" glyph-name="W" d="M580 0H350l-32 532v96h-24v-96L262 0H32L8 700h120l16-532V78h24v90l32 532h212l32-532V78h24v90l16 532h120L580 0Z"/><glyph unicode="X" glyph-name="X" d="m176 700 118-286h24l118 286h143L435 360v-18L579 0H436L318 288h-24L176 0H33l144 342v18L33 700h143Z"/><glyph unicode="Y" glyph-name="Y" d="M240 246h-30L9 700h144l144-334h18l144 334h144L402 246h-30V0H240v246Z"/><glyph unicode="Z" glyph-name="Z" d="M53 700h498V484L155 144v-18h408V0H47v216l396 340v18H53v126Z"/><glyph unicode="[" glyph-name="bracketleft" d="M236 754q0 45 28 73t74 29h132V736h-81q-27 0-27-30V-6q0-30 27-30h81v-120H338q-45 0-73 28t-29 74v808Z"/><glyph unicode="\" glyph-name="backslash" d="m513-89-115-36L99 789l114 36L513-89Z"/><glyph unicode="]" glyph-name="bracketright" d="M376-54q0-45-28-73t-74-29H142v120h81q27 0 27 30v712q0 30-27 30h-81v120h132q45 0 73-28t29-74V-54Z"/><glyph unicode="^" glyph-name="asciicircum" d="M546 424H406l-91 210h-18l-91-210H66l134 276h212l134-276Z"/><glyph unicode="_" glyph-name="underscore" d="M61-48h490v-114H61v114Z"/><glyph unicode="`" glyph-name="grave" d="M397 570H295l-84 136h134l52-136Z"/><glyph unicode="a" glyph-name="a" d="M399 72q-20-47-56-66t-84-20q-45 0-84 17t-70 50-47 80-18 107v16q0 59 17 106t46 80 67 50 83 18q53 0 85-18t52-56h18v60h126V150q0-30 27-30h19V0h-86q-34 0-55 20t-22 52h-18Zm-112 34q55 0 88 36t33 100v12q0 63-33 99t-88 37q-55 0-88-36t-33-100v-12q0-63 33-99t88-37Z"/><glyph unicode="b" glyph-name="b" d="M183 0H57v700h126V424h18q20 41 58 63t97 23q44 0 83-17t69-49 47-80 18-107v-18q0-61-17-108t-46-79-68-49-86-17q-34 0-59 7t-43 19-31 27-22 33h-18V0Zm132 106q59 0 95 36t37 100v12q0 63-36 99t-96 37q-59 0-95-37t-37-99v-12q0-61 36-98t96-38Z"/><glyph unicode="c" glyph-name="c" d="M562 182q-17-88-80-142T312-14q-55 0-102 17t-83 49-55 79-20 107v12q0 60 20 108t55 82 83 52 102 18q104 0 168-54t82-142l-124-32q-6 44-38 76t-90 32q-27 0-51-10t-42-28-28-45-11-60v-6q0-33 10-58t29-43 42-25 51-9q58 0 88 29t40 78l124-31Z"/><glyph unicode="d" glyph-name="d" d="M434 72h-18q-8-17-19-32t-30-28-44-19-62-7q-46 0-85 16t-69 49-46 80-17 108v18q0 60 17 107t48 79 71 50 86 17q60 0 95-22t55-64h18v276h126V0H434v72Zm-132 34q59 0 95 37t37 99v12q0 61-36 98t-96 38q-59 0-95-36t-37-100v-12q0-63 36-99t96-37Z"/><glyph unicode="e" glyph-name="e" d="M189 207q1-22 10-40t26-32 38-21 46-8q47 0 72 16t36 40l108-60q-9-19-25-39t-41-38-62-28-86-11q-56 0-102 18t-79 52-52 83-19 111v6q0 57 19 104t54 80 79 51 98 19q64 0 110-22t76-57 44-76 14-81v-67H189Zm119 189q-48 0-78-24t-39-57h234q-6 35-37 58t-80 23Z"/><glyph unicode="f" glyph-name="f" d="M74 496h141v102q0 43 29 72t72 30h202V580H368q-27 0-27-30v-54h195V376H341V0H215v376H74v120Z"/><glyph unicode="g" glyph-name="g" d="M432 72h-18q-8-17-19-32t-30-28-44-19-62-7q-46 0-85 16t-69 49-46 80-17 108v18q0 60 17 107t48 79 71 50 86 17q60 0 95-22t55-64h18v72h126v-618q0-34-21-56t-56-22H147v120h258q27 0 27 30V72Zm-132 34q59 0 95 37t37 99v12q0 61-36 98t-96 38q-59 0-95-36t-37-100v-12q0-63 36-99t96-37Z"/><glyph unicode="h" glyph-name="h" d="M206 0H80v700h126V416h18q19 45 56 69t91 25q37 0 68-12t54-36 36-61 13-89V0H416v282q0 53-25 83t-74 31q-56 0-83-37t-28-101V0Z"/><glyph unicode="i" glyph-name="i" d="M87 120h168v256H99v120h282V120h144V0H87v120Zm325 523q0-20-7-37t-21-30-30-20-37-8q-20 0-37 7t-30 20-20 30-8 38q0 20 7 37t21 30 30 20 37 8q19 0 36-7t31-20 20-30 8-38Z"/><glyph unicode="j" glyph-name="j" d="M126 496h318V-98q0-52-28-77t-73-25H108v120h180q30 0 30 33v423H126v120Zm348 147q0-20-7-37t-21-30-30-20-37-8q-20 0-37 7t-30 20-20 30-8 38q0 20 7 37t21 30 30 20 37 8q19 0 36-7t31-20 20-30 8-38Z"/><glyph unicode="k" glyph-name="k" d="M244 314h24l132 182h138v-6L378 263v-18L554 6V0H410L268 194h-24V0H118v700h126V314Z"/><glyph unicode="l" glyph-name="l" d="M75 120h174v460H81v120h294V120h162V0H75v120Z"/><glyph unicode="m" glyph-name="m" d="M576 0H450v348q0 21-10 31t-28 11q-20 0-31-12t-12-36V0H243v348q0 21-11 31t-28 11q-18 0-30-12t-12-36V0H36v496h126v-48h18q6 27 27 44t57 18q33 0 56-17t31-45h18q8 27 33 44t64 18q50 0 80-33t30-93V0Z"/><glyph unicode="n" glyph-name="n" d="M204 0H78v496h126v-74h18q17 42 55 65t89 23q36 0 67-11t56-36 37-61 14-88V0H414v282q0 53-25 83t-74 31q-56 0-83-37t-28-101V0Z"/><glyph unicode="o" glyph-name="o" d="M564 242q0-62-21-109t-57-80-82-50-98-17q-51 0-97 17t-83 49-57 80-21 110v12q0 61 21 108t57 81 82 50 98 17q51 0 97-17t83-50 57-80 21-109v-12ZM306 106q27 0 51 9t42 26 28 41 11 56v20q0 31-10 55t-29 42-42 26-51 9q-27 0-51-9t-42-26-28-41-11-56v-20q0-31 10-55t29-42 42-26 51-9Z"/><glyph unicode="p" glyph-name="p" d="M178-200H52v696h126v-72h18q20 41 58 63t97 23q44 0 83-17t69-49 47-80 18-107v-18q0-61-17-108t-46-79-68-49-86-17q-34 0-59 7t-43 19-31 27-22 33h-18v-272Zm132 306q59 0 95 36t37 100v12q0 63-36 99t-96 37q-59 0-95-37t-37-99v-12q0-61 36-98t96-38Z"/><glyph unicode="q" glyph-name="q" d="M434 72h-18q-8-17-19-32t-30-28-44-19-62-7q-46 0-85 16t-69 49-46 80-17 108v18q0 60 17 107t48 79 71 50 86 17q60 0 95-22t55-64h18v72h126v-696H434V72Zm-132 34q59 0 95 37t37 99v12q0 61-36 98t-96 38q-59 0-95-36t-37-100v-12q0-63 36-99t96-37Z"/><glyph unicode="r" glyph-name="r" d="M54 496h210v-72h18q14 41 47 63t81 23q74 0 119-46t45-142v-22l-130-12v14q0 41-21 65t-63 25q-42 0-66-29t-24-83V120h114V0H42v120h102v256H54v120Z"/><glyph unicode="s" glyph-name="s" d="M236 356q0-24 25-34t91-18q76-8 124-45t48-105v-6q0-74-54-118T318-14q-58 0-99 15t-68 37-41 50-20 54l116 38q8-32 33-56t79-24q47 0 64 14t18 32q0 10-4 18t-17 16-32 13-52 8q-84 7-133 43t-50 108v6q0 37 16 65t42 47 60 30 70 10q47 0 81-11t59-30 39-41 23-44l-114-46q-9 27-31 42t-57 16q-32 0-48-11t-16-29Z"/><glyph unicode="t" glyph-name="t" d="M64 496h147v204h126V496h179V376H337V150q0-30 27-30h134V0H288q-34 0-55 22t-22 56v298H64v120Z"/><glyph unicode="u" glyph-name="u" d="M414 496h126V0H414v72h-18q-33-86-142-86-37 0-69 12t-56 37-37 62-14 89v310h126V212q0-53 25-82t75-30q57 0 83 36t27 100v260Z"/><glyph unicode="v" glyph-name="v" d="M43 496h136L296 60h18l117 436h136L425 0H185L43 496Z"/><glyph unicode="w" glyph-name="w" d="M564 0H346l-28 376v60h-24v-60L266 0H48L15 496h116l22-376V60h24v60l25 376h208l25-376V60h24v60l22 376h116L564 0Z"/><glyph unicode="x" glyph-name="x" d="M407 496h139L426 263v-18L553 0H408l-93 194h-18L204 0H59l127 245v18L65 496h140l92-182h18l92 182Z"/><glyph unicode="y" glyph-name="y" d="M414 496h126v-618q0-34-21-56t-56-22H168v120h219q27 0 27 30V72h-18q-33-86-142-86-37 0-69 12t-56 37-37 62-14 89v310h126V212q0-53 25-82t75-30q57 0 83 36t27 100v260Z"/><glyph unicode="z" glyph-name="z" d="M523 120V0H91v210l312 152v18H97v116h414V292L199 138v-18h324Z"/><glyph unicode="{" glyph-name="braceleft" d="M256 754q0 45 28 73t74 29h132V736h-81q-27 0-27-30V437q0-34-21-56t-57-22h-6v-18h6q35 0 56-22t22-56V-6q0-30 27-30h81v-120H358q-45 0-73 28t-29 74v303q0 29-27 29h-63v144h63q27 0 27 29v303Z"/><glyph unicode="|" glyph-name="bar" d="M366-156H246V856h120V-156Z"/><glyph unicode="}" glyph-name="braceright" d="M356 451q0-29 27-29h63V278h-63q-27 0-27-29V-54q0-45-28-73t-74-29H122v120h81q27 0 27 30v269q0 34 21 56t57 22h6v18h-6q-35 0-56 22t-22 56v269q0 30-27 30h-81v120h132q45 0 73-28t29-74V451Z"/><glyph unicode="~" glyph-name="asciitilde" d="M335 376q12-20 20-27t22-8q10 0 19 5t20 14l86 63 70-93-121-92q-17-14-39-24t-50-11q-35 0-55 12t-31 29q-12 20-20 27t-22 8q-10 0-19-5t-20-14l-86-63-70 93 121 92q17 14 39 24t50 11q35 0 55-12t31-29Z"/><glyph glyph-name="uni00A0"/><glyph unicode="¡" glyph-name="exclamdown" d="M372-200v488H240v-488h132Zm29 619q0 20-7 37t-21 30-30 20-37 8q-20 0-37-7t-30-20-20-30-8-38q0-20 7-37t21-30 30-20 37-8q19 0 36 7t31 20 20 30 8 38Z"/><glyph unicode="¢" glyph-name="cent" d="M360 608q78-12 130-62t64-124l-112-26q-6 35-25 63t-57 39V202q38 11 57 40t27 62l112-26q-14-74-65-124T360 91V28h-96v63q-44 7-82 27t-66 52-44 75-16 97v12q0 52 16 95t44 76 66 53 82 29v65h96v-64ZM170 345q0-56 26-91t68-50v291q-42-15-68-52t-26-92v-6Z"/><glyph unicode="£" glyph-name="sterling" d="M278 378h72v-96h-72v-72h218V102H104v108h60v72h-60v96h60v60q0 85 47 129t125 45q37 0 69-11t54-34 36-54 13-73v-18H394v20q0 24-13 43t-45 19q-32 0-45-19t-13-43v-64Z"/><glyph unicode="¤" glyph-name="currency" d="M56 350q0 37 10 71t29 63l-61 61 77 77 61-61q29 18 62 28t72 11q37 0 71-10t63-29l61 61 77-77-61-61q18-29 28-63t11-71q0-38-10-71t-29-63l61-61-77-77-61 61q-29-19-63-29t-71-10q-38 0-71 10t-63 29l-61-61-77 77 61 61q-19 29-29 62t-10 72Zm108 0q0-30 11-56t30-45 45-30 56-11q30 0 56 11t45 30 30 45 11 56q0 30-11 56t-30 45-45 30-56 11q-30 0-56-11t-45-30-30-45-11-56Z"/><glyph unicode="¥" glyph-name="yen" d="M115 390h57L85 598h134l81-208h12l81 208h134l-87-208h57v-96H369v-30h128v-96H369v-66H243v66H115v96h128v30H115v96Z"/><glyph unicode="¦" glyph-name="brokenbar" d="M366 290v-446H246v446h120ZM246 410v446h120V410H246Z"/><glyph unicode="§" glyph-name="section" d="M352 598q0 14-9 23t-33 9q-18 0-27-7t-9-17q0-14 12-21t54-16q54-10 83-38t29-79q0-16-4-33t-14-31q5-9 8-22t4-30q0-51-35-84t-99-34q-71 0-107 37t-37 92v6h90v-6q0-22 15-33t39-12q24 0 34 9t10 21q0 6-2 11t-8 11-18 9-34 8q-22 4-43 12t-37 21-26 34-10 48q0 21 5 37t14 28q-6 12-9 24t-4 31q0 52 36 80t90 28q32 0 57-9t41-24 25-37 9-44v-6h-90v4Zm4-157q2 4 2 10 0 14-9 23t-38 17l-36 8q-3-5-3-12 0-10 8-19t40-18l36-9Z"/><glyph unicode="¨" glyph-name="dieresis" d="M282 643q0-20-7-37t-21-30-30-20-37-8q-20 0-37 7t-30 20-20 30-8 38q0 20 7 37t21 30 30 20 37 8q19 0 36-7t31-20 20-30 8-38Zm238 0q0-20-7-37t-21-30-30-20-37-8q-20 0-37 7t-30 20-20 30-8 38q0 20 7 37t21 30 30 20 37 8q19 0 36-7t31-20 20-30 8-38Z"/><glyph unicode="©" glyph-name="copyright" d="M305 634q-17 0-24-10t-8-22v-92q0-12 7-22t25-10q17 0 24 10t8 22v16h78v-16q0-46-29-75t-81-29q-49 0-79 29t-31 75v92q0 46 30 75t80 29q51 0 80-29t30-75v-16h-78v16q0 12-7 22t-25 10ZM28 556q0 57 22 108t59 88 89 60 108 22q57 0 108-22t88-59 60-89 22-108q0-57-22-108t-59-88-89-60-108-22q-57 0-108 22t-88 59-60 89-22 108Zm78 0q0-42 15-78t43-64 63-42 79-16q42 0 78 15t64 43 42 63 16 79q0 42-15 78t-43 64-63 42-79 16q-42 0-78-15t-64-43-42-63-16-79Z"/><glyph unicode="ª" glyph-name="ordfeminine" d="M347 446q-10-18-29-29t-48-11q-27 0-51 10t-42 29-28 47-11 64q0 36 10 63t29 47 42 30 53 10q30 0 47-9t28-25h9v28h80V507q0-17 16-17h20v-78h-76q-18 0-28 9t-12 25h-9Zm-60 38q30 0 47 19t18 53q0 33-17 52t-48 20q-30 0-47-19t-18-53q0-33 17-52t48-20Z"/><glyph unicode="«" glyph-name="guillemotleft" d="M294 0v142l-174 97v18l174 97v142h-6L42 344V152L288 0h6Zm276 0v142l-174 97v18l174 97v142h-6L318 344V152L564 0h6Z"/><glyph unicode="¬" glyph-name="logicalnot" d="M97 407h418V162H401v131H97v114Z"/><glyph unicode="®" glyph-name="registered" d="M28 556q0 57 22 108t59 88 89 60 108 22q57 0 108-22t88-59 60-89 22-108q0-57-22-108t-59-88-89-60-108-22q-57 0-108 22t-88 59-60 89-22 108Zm78 0q0-42 15-78t43-64 63-42 79-16q42 0 78 15t64 43 42 63 16 79q0 42-15 78t-43 64-63 42-79 16q-42 0-78-15t-64-43-42-63-16-79Zm302-144h-78v71q0 11-6 18t-19 7h-11v-96h-78v288h106q45 0 68-24t24-56q0-53-40-69v-9q18-2 26-14t8-26v-90ZM294 580h16q26 0 26 24t-26 24h-16v-48Z"/><glyph unicode="¯" glyph-name="overscore" d="M453 570H159v102h294V570Z"/><glyph unicode="°" glyph-name="degree" d="M149 569q0 33 12 61t34 50 49 33 62 13q33 0 61-12t50-34 33-49 13-62q0-33-12-61t-34-50-49-33-62-13q-33 0-61 12t-50 34-33 49-13 62Zm108 0q0-20 14-34t35-15q20 0 34 14t15 35q0 20-14 34t-35 15q-20 0-34-14t-15-35Z"/><glyph unicode="±" glyph-name="plusminus" d="M97 407h152v152h114V407h152V293H363V162H249v131H97v114Zm0-293h418V0H97v114Z"/><glyph unicode="²" glyph-name="twosuperior" d="M413 484v-72H200v66q0 22 7 38t20 28 28 19 33 11q33 8 41 15t9 19q0 11-7 18t-22 8q-31 0-31-36h-78v6q0 47 30 74t83 28q47 0 75-27t28-63q0-41-20-62t-52-30q-39-11-52-18t-14-22h135Z"/><glyph unicode="³" glyph-name="threesuperior" d="M200 512h78v-6q0-14 8-21t22-7q14 0 22 7t8 21q0 30-34 30h-26v70l46 15v9H209v70h193v-98l-46-17v-9q23-5 41-23t19-51q0-43-28-69t-76-27q-57 0-84 29t-28 65v12Z"/><glyph unicode="´" glyph-name="acute" d="M267 706h134l-84-136H215l52 136Z"/><glyph unicode="µ" glyph-name="mu" d="M411 30h-18q-10-20-31-32t-56-12q-35 0-56 12t-31 32h-18v-230H75v696h126V220q0-25 5-46t17-38 33-26 50-10q30 0 50 9t32 26 18 38 5 47v276h126V0H411v30Z"/><glyph unicode="¶" glyph-name="paragraph" d="M261 424h-12q-30 0-56 11t-46 31-31 46-11 57q0 30 11 56t30 46 46 31 57 12h258V218H399v394h-30V218H261v206Zm0 102v86h-12q-17 0-29-10t-13-33q0-22 12-32t30-11h12Z"/><glyph unicode="·" glyph-name="middot" d="M401 350q0-20-7-37t-21-30-30-20-37-8q-20 0-37 7t-30 20-20 30-8 38q0 20 7 37t21 30 30 20 37 8q19 0 36-7t31-20 20-30 8-38Z"/><glyph unicode="¸" glyph-name="cedilla" d="m300 0-10-46h12q5 9 16 15t30 7q42 0 62-26t21-62q0-47-31-73t-79-27q-29 0-48 5t-36 15l26 68q23-14 50-14 15 0 24 7t10 19q0 9-5 15t-15 7q-17 0-20-14h-97v12l20 92h70Z"/><glyph unicode="¹" glyph-name="onesuperior" d="M282 484v132h-6l-72-60h-6v90l72 54h90V484h72v-72H204v72h78Z"/><glyph unicode="º" glyph-name="ordmasculine" d="M157 556q0 37 12 65t32 47 48 28 57 10q30 0 57-9t47-29 33-47 12-65q0-37-12-65t-32-47-48-28-57-10q-30 0-57 9t-47 29-33 47-12 65Zm149-72q31 0 48 19t17 53q0 33-17 52t-48 20q-31 0-48-19t-17-53q0-33 17-52t48-20Z"/><glyph unicode="»" glyph-name="guillemotright" d="M43 0v142l174 97v18L43 354v142h6l246-152V152L49 0h-6Zm275 0v142l174 97v18l-174 97v142h6l246-152V152L324 0h-6Z"/><glyph unicode="¼" glyph-name="onequarter" d="m532 510 41-78-472-242-41 78 472 242Zm-395-26v132h-6l-72-60h-6v90l72 54h90V484h72v-72H59v72h78Zm268-195h138V119h42V49h-42V1h-78v48H335v97l70 143Zm0-161v-9h60v118h-9l-51-109Z"/><glyph unicode="½" glyph-name="onehalf" d="M135 484v132h-6l-72-60h-6v90l72 54h90V484h72v-72H57v72h78ZM568 73V1H355v66q0 22 7 38t20 28 28 19 33 11q33 8 41 15t9 19q0 11-7 18t-22 8q-31 0-31-36h-78v6q0 47 30 74t83 28q47 0 75-27t28-63q0-41-20-62t-52-30q-39-11-52-18t-14-22h135Zm-38 437 41-78L99 190l-41 78 472 242Z"/><glyph unicode="¾" glyph-name="threequarters" d="m525 510 41-78L94 190l-41 78 472 242Zm-478 2h78v-6q0-14 8-21t22-7q14 0 22 7t8 21q0 30-34 30h-26v70l46 15v9H56v70h193v-98l-46-17v-9q23-5 41-23t19-51q0-43-28-69t-76-27q-57 0-84 29t-28 65v12Zm351-223h138V119h42V49h-42V1h-78v48H328v97l70 143Zm0-161v-9h60v118h-9l-51-109Z"/><glyph unicode="¿" glyph-name="questiondown" d="M287 110q-43 0-67-27t-25-71q0-42 29-71t79-29q27 0 48 9t36 26 22 38 8 45v42h132V18q0-45-16-87t-48-74-78-51-106-20q-53 0-97 17t-75 49-49 72-17 90v6q0 41 12 78t36 65 57 45 76 17q14 0 21 8t7 22v33h126v-86q0-39-26-65t-66-27h-19Zm-48 309q0 20 7 37t21 30 30 20 37 8q20 0 37-7t30-20 20-30 8-38q0-20-7-37t-21-30-30-20-37-8q-19 0-36 7t-31 20-20 30-8 38Z"/><glyph unicode="À" glyph-name="Agrave" d="M425 150H187L153 0H15l167 700h248L597 0H459l-34 150ZM215 276h181l-81 358h-18l-82-358Zm143 498H256l-84 136h134l52-136Z"/><glyph unicode="Á" glyph-name="Aacute" d="M425 150H187L153 0H15l167 700h248L597 0H459l-34 150ZM215 276h181l-81 358h-18l-82-358Zm92 634h134l-84-136H255l52 136Z"/><glyph unicode="Â" glyph-name="Acircumflex" d="M425 150H187L153 0H15l167 700h248L597 0H459l-34 150ZM215 276h181l-81 358h-18l-82-358Zm140 498-43 88h-12l-43-88H136l84 136h172l84-136H355Z"/><glyph unicode="Ã" glyph-name="Atilde" d="M425 150H187L153 0H15l167 700h248L597 0H459l-34 150ZM215 276h181l-81 358h-18l-82-358Zm107 617q8-9 16-16t22-8q14 0 22 6t17 18l30 38 77-61-56-72q-18-23-39-33t-47-11q-20 0-38 9t-36 29q-8 9-16 16t-22 8q-14 0-22-6t-17-18l-30-38-77 61 56 72q19 24 40 34t46 10q20 0 38-9t36-29Z"/><glyph unicode="Ä" glyph-name="Adieresis" d="M425 150H187L153 0H15l167 700h248L597 0H459l-34 150ZM215 276h181l-81 358h-18l-82-358Zm67 567q0-20-7-37t-21-30-30-20-37-8q-20 0-37 7t-30 20-20 30-8 38q0 20 7 37t21 30 30 20 37 8q19 0 36-7t31-20 20-30 8-38Zm238 0q0-20-7-37t-21-30-30-20-37-8q-20 0-37 7t-30 20-20 30-8 38q0 20 7 37t21 30 30 20 37 8q19 0 36-7t31-20 20-30 8-38Z"/><glyph unicode="Å" glyph-name="Aring" d="M425 150H187L153 0H15l167 700h248L597 0H459l-34 150ZM215 276h181l-81 358h-18l-82-358Zm-17 600q0 22 8 42t23 34 34 23 43 9q22 0 42-8t34-23 23-35 9-42q0-23-8-42t-23-34-35-23-42-9q-23 0-42 8t-34 23-23 34-9 43Zm78 0q0-13 8-21t22-9q13 0 21 8t9 22q0 13-8 21t-22 9q-13 0-21-8t-9-22Z"/><glyph unicode="Æ" glyph-name="AE" d="M286 150H172L138 0H0l167 700h423V574H418V414h166V288H418V126h178V0H286v150Zm-86 126h86v298h-18l-68-298Z"/><glyph unicode="Ç" glyph-name="Ccedilla" d="M308 106q38 0 62 11t38 31 19 45 5 53v18h132v-18q0-117-57-183T340-13l-7-33h12q5 9 16 15t30 7q42 0 62-26t21-62q0-47-31-73t-79-27q-29 0-48 5t-36 15l26 68q23-14 50-14 15 0 24 7t10 19q0 9-5 15t-15 7q-17 0-20-14h-97v12l17 80Q166-1 107 71T48 272v156q0 67 18 120t52 90 82 56 108 20q62 0 110-18t80-52 49-82 17-108v-18H432v18q0 25-6 50t-20 45-38 32-60 13q-33 0-57-12t-40-34-23-50-8-60V262q0-34 7-62t22-50 39-32 60-12Z"/><glyph unicode="È" glyph-name="Egrave" d="M82 700h442V574H214V414h298V288H214V126h322V0H82v700Zm284 74H264l-84 136h134l52-136Z"/><glyph unicode="É" glyph-name="Eacute" d="M82 700h442V574H214V414h298V288H214V126h322V0H82v700Zm227 210h134l-84-136H257l52 136Z"/><glyph unicode="Ê" glyph-name="Ecircumflex" d="M82 700h442V574H214V414h298V288H214V126h322V0H82v700Zm271 74-43 88h-12l-43-88H134l84 136h172l84-136H353Z"/><glyph unicode="Ë" glyph-name="Edieresis" d="M82 700h442V574H214V414h298V288H214V126h322V0H82v700Zm198 143q0-20-7-37t-21-30-30-20-37-8q-20 0-37 7t-30 20-20 30-8 38q0 20 7 37t21 30 30 20 37 8q19 0 36-7t31-20 20-30 8-38Zm238 0q0-20-7-37t-21-30-30-20-37-8q-20 0-37 7t-30 20-20 30-8 38q0 20 7 37t21 30 30 20 37 8q19 0 36-7t31-20 20-30 8-38Z"/><glyph unicode="Ì" glyph-name="Igrave" d="M72 700h468V574H372V126h168V0H72v126h168v448H72v126Zm279 74H249l-84 136h134l52-136Z"/><glyph unicode="Í" glyph-name="Iacute" d="M72 700h468V574H372V126h168V0H72v126h168v448H72v126Zm236 210h134l-84-136H256l52 136Z"/><glyph unicode="Î" glyph-name="Icircumflex" d="M72 700h468V574H372V126h168V0H72v126h168v448H72v126Zm283 74-43 88h-12l-43-88H136l84 136h172l84-136H355Z"/><glyph unicode="Ï" glyph-name="Idieresis" d="M72 700h468V574H372V126h168V0H72v126h168v448H72v126Zm210 143q0-20-7-37t-21-30-30-20-37-8q-20 0-37 7t-30 20-20 30-8 38q0 20 7 37t21 30 30 20 37 8q19 0 36-7t31-20 20-30 8-38Zm238 0q0-20-7-37t-21-30-30-20-37-8q-20 0-37 7t-30 20-20 30-8 38q0 20 7 37t21 30 30 20 37 8q19 0 36-7t31-20 20-30 8-38Z"/><glyph unicode="Ð" glyph-name="Eth" d="M46 410h66v164H46v126h254q130 0 193-60t63-188V248q0-127-63-187T300 0H46v126h66v164H46v120Zm254-284q69 0 96 32t28 102v192q0 60-27 91t-97 31h-56V410h98V290h-98V126h56Z"/><glyph unicode="Ñ" glyph-name="Ntilde" d="M401 66h18v634h132V0H293l-82 634h-18V0H61v700h258l82-634Zm-73 825q8-9 16-16t22-8q14 0 22 6t17 18l30 38 77-61-56-72q-18-23-39-33t-47-11q-20 0-38 9t-36 29q-8 9-16 16t-22 8q-14 0-22-6t-17-18l-30-38-77 61 56 72q19 24 40 34t46 10q20 0 38-9t36-29Z"/><glyph unicode="Ò" glyph-name="Ograve" d="M48 428q0 136 68 211t190 75q121 0 189-75t69-211V272q0-140-68-213T306-14q-121 0-189 73T48 272v156Zm258-322q36 0 60 11t39 33 21 50 6 64v172q0 33-7 62t-22 50-39 33-58 13q-34 0-58-12t-39-34-22-50-7-62V264q0-35 6-64t21-50 39-32 60-12Zm53 668H257l-84 136h134l52-136Z"/><glyph unicode="Ó" glyph-name="Oacute" d="M48 428q0 136 68 211t190 75q121 0 189-75t69-211V272q0-140-68-213T306-14q-121 0-189 73T48 272v156Zm258-322q36 0 60 11t39 33 21 50 6 64v172q0 33-7 62t-22 50-39 33-58 13q-34 0-58-12t-39-34-22-50-7-62V264q0-35 6-64t21-50 39-32 60-12Zm0 804h134l-84-136H254l52 136Z"/><glyph unicode="Ô" glyph-name="Ocircumflex" d="M48 428q0 136 68 211t190 75q121 0 189-75t69-211V272q0-140-68-213T306-14q-121 0-189 73T48 272v156Zm258-322q36 0 60 11t39 33 21 50 6 64v172q0 33-7 62t-22 50-39 33-58 13q-34 0-58-12t-39-34-22-50-7-62V264q0-35 6-64t21-50 39-32 60-12Zm49 668-43 88h-12l-43-88H136l84 136h172l84-136H355Z"/><glyph unicode="Õ" glyph-name="Otilde" d="M48 428q0 136 68 211t190 75q121 0 189-75t69-211V272q0-140-68-213T306-14q-121 0-189 73T48 272v156Zm258-322q36 0 60 11t39 33 21 50 6 64v172q0 33-7 62t-22 50-39 33-58 13q-34 0-58-12t-39-34-22-50-7-62V264q0-35 6-64t21-50 39-32 60-12Zm16 787q8-9 16-16t22-8q14 0 22 6t17 18l30 38 77-61-56-72q-18-23-39-33t-47-11q-20 0-38 9t-36 29q-8 9-16 16t-22 8q-14 0-22-6t-17-18l-30-38-77 61 56 72q19 24 40 34t46 10q20 0 38-9t36-29Z"/><glyph unicode="Ö" glyph-name="Odieresis" d="M48 428q0 136 68 211t190 75q121 0 189-75t69-211V272q0-140-68-213T306-14q-121 0-189 73T48 272v156Zm258-322q36 0 60 11t39 33 21 50 6 64v172q0 33-7 62t-22 50-39 33-58 13q-34 0-58-12t-39-34-22-50-7-62V264q0-35 6-64t21-50 39-32 60-12Zm-24 737q0-20-7-37t-21-30-30-20-37-8q-20 0-37 7t-30 20-20 30-8 38q0 20 7 37t21 30 30 20 37 8q19 0 36-7t31-20 20-30 8-38Zm238 0q0-20-7-37t-21-30-30-20-37-8q-20 0-37 7t-30 20-20 30-8 38q0 20 7 37t21 30 30 20 37 8q19 0 36-7t31-20 20-30 8-38Z"/><glyph unicode="×" glyph-name="multiply" d="M520 481 388 350l132-131-81-81-133 131-133-131-81 81 132 131L92 481l81 81 133-131 133 131 81-81Z"/><glyph unicode="Ø" glyph-name="Oslash" d="M48 428q0 136 68 211t190 75q31 0 60-6l24 73 109-34-28-86q45-37 69-95t24-138V272q0-140-68-213T306-14q-32 0-55 4l-27-83-110 34 30 93q-47 35-71 94T48 272v156Zm132-164q0-25 2-46t10-39l136 413q-5 1-11 1t-11 1q-34 0-58-12t-39-34-22-50-7-62V264Zm126-158q36 0 60 11t39 33 21 50 6 64v172q0 20-2 38t-9 36L289 106h17Z"/><glyph unicode="Ù" glyph-name="Ugrave" d="M558 700V242q0-120-63-188T306-14q-125 0-188 68T54 242v458h132V242q0-62 29-97t91-35q62 0 91 35t29 97v458h132Zm-201 74H255l-84 136h134l52-136Z"/><glyph unicode="Ú" glyph-name="Uacute" d="M558 700V242q0-120-63-188T306-14q-125 0-188 68T54 242v458h132V242q0-62 29-97t91-35q62 0 91 35t29 97v458h132ZM308 910h134l-84-136H256l52 136Z"/><glyph unicode="Û" glyph-name="Ucircumflex" d="M558 700V242q0-120-63-188T306-14q-125 0-188 68T54 242v458h132V242q0-62 29-97t91-35q62 0 91 35t29 97v458h132Zm-203 74-43 88h-12l-43-88H136l84 136h172l84-136H355Z"/><glyph unicode="Ü" glyph-name="Udieresis" d="M558 700V242q0-120-63-188T306-14q-125 0-188 68T54 242v458h132V242q0-62 29-97t91-35q62 0 91 35t29 97v458h132ZM282 843q0-20-7-37t-21-30-30-20-37-8q-20 0-37 7t-30 20-20 30-8 38q0 20 7 37t21 30 30 20 37 8q19 0 36-7t31-20 20-30 8-38Zm238 0q0-20-7-37t-21-30-30-20-37-8q-20 0-37 7t-30 20-20 30-8 38q0 20 7 37t21 30 30 20 37 8q19 0 36-7t31-20 20-30 8-38Z"/><glyph unicode="Ý" glyph-name="Yacute" d="M240 246h-30L9 700h144l144-334h18l144 334h144L402 246h-30V0H240v246Zm77 664h134l-84-136H265l52 136Z"/><glyph unicode="Þ" glyph-name="Thorn" d="M202 132V0H70v700h132V568h142q54 0 94-17t66-46 40-65 14-75v-24q0-39-13-76t-40-67-67-48-94-18H202Zm0 126h129q44 0 69 24t26 62v12q0 38-25 62t-70 24H202V258Z"/><glyph unicode="ß" glyph-name="germandbls" d="M350 346h44q35 0 69-10t60-32 43-56 16-82v-6q0-38-12-69t-35-55-57-37-78-13q-40 0-70 12t-52 32-33 47-15 55l122 24q2-21 14-35t38-15q26 0 39 16t13 42q0 39-25 56t-71 18h-94v228h38q30 0 50 15t20 47q0 29-22 47t-58 19q-42 0-68-25t-26-73V0H74v376H14v120h60v18q0 49 17 86t47 63 69 38 83 13q43 0 81-12t67-37 45-57 17-76v-6q0-39-11-68t-32-50-48-31-59-13v-18Z"/><glyph unicode="à" glyph-name="agrave" d="M399 72q-20-47-56-66t-84-20q-45 0-84 17t-70 50-47 80-18 107v16q0 59 17 106t46 80 67 50 83 18q53 0 85-18t52-56h18v60h126V150q0-30 27-30h19V0h-86q-34 0-55 20t-22 52h-18Zm-112 34q55 0 88 36t33 100v12q0 63-33 99t-88 37q-55 0-88-36t-33-100v-12q0-63 33-99t88-37Zm274 464H459l-84 136h134l52-136Z"/><glyph unicode="á" glyph-name="aacute" d="M399 72q-20-47-56-66t-84-20q-45 0-84 17t-70 50-47 80-18 107v16q0 59 17 106t46 80 67 50 83 18q53 0 85-18t52-56h18v60h126V150q0-30 27-30h19V0h-86q-34 0-55 20t-22 52h-18Zm-112 34q55 0 88 36t33 100v12q0 63-33 99t-88 37q-55 0-88-36t-33-100v-12q0-63 33-99t88-37Zm224 600h134l-84-136H459l52 136Z"/><glyph unicode="â" glyph-name="acircumflex" d="M399 72q-20-47-56-66t-84-20q-45 0-84 17t-70 50-47 80-18 107v16q0 59 17 106t46 80 67 50 83 18q53 0 85-18t52-56h18v60h126V150q0-30 27-30h19V0h-86q-34 0-55 20t-22 52h-18Zm-112 34q55 0 88 36t33 100v12q0 63-33 99t-88 37q-55 0-88-36t-33-100v-12q0-63 33-99t88-37Zm272 464-43 88h-12l-43-88H340l84 136h172l84-136H559Z"/><glyph unicode="ã" glyph-name="atilde" d="M399 72q-20-47-56-66t-84-20q-45 0-84 17t-70 50-47 80-18 107v16q0 59 17 106t46 80 67 50 83 18q53 0 85-18t52-56h18v60h126V150q0-30 27-30h19V0h-86q-34 0-55 20t-22 52h-18Zm-112 34q55 0 88 36t33 100v12q0 63-33 99t-88 37q-55 0-88-36t-33-100v-12q0-63 33-99t88-37Zm37 840q8-9 16-16t22-8q14 0 22 6t17 18l30 38 77-61-56-72q-18-23-39-33t-47-11q-20 0-38 9t-36 29q-8 9-16 16t-22 8q-14 0-22-6t-17-18l-30-38-77 61 56 72q19 24 40 34t46 10q20 0 38-9t36-29Z"/><glyph unicode="ä" glyph-name="adieresis" d="M399 72q-20-47-56-66t-84-20q-45 0-84 17t-70 50-47 80-18 107v16q0 59 17 106t46 80 67 50 83 18q53 0 85-18t52-56h18v60h126V150q0-30 27-30h19V0h-86q-34 0-55 20t-22 52h-18Zm-112 34q55 0 88 36t33 100v12q0 63-33 99t-88 37q-55 0-88-36t-33-100v-12q0-63 33-99t88-37Zm233 537q0-20-7-37t-21-30-30-20-37-8q-20 0-37 7t-30 20-20 30-8 38q0 20 7 37t21 30 30 20 37 8q19 0 36-7t31-20 20-30 8-38Zm238 0q0-20-7-37t-21-30-30-20-37-8q-20 0-37 7t-30 20-20 30-8 38q0 20 7 37t21 30 30 20 37 8q19 0 36-7t31-20 20-30 8-38Z"/><glyph unicode="å" glyph-name="aring" d="M399 72q-20-47-56-66t-84-20q-45 0-84 17t-70 50-47 80-18 107v16q0 59 17 106t46 80 67 50 83 18q53 0 85-18t52-56h18v60h126V150q0-30 27-30h19V0h-86q-34 0-55 20t-22 52h-18Zm-112 34q55 0 88 36t33 100v12q0 63-33 99t-88 37q-55 0-88-36t-33-100v-12q0-63 33-99t88-37Zm115 570q0 22 8 42t23 34 34 23 43 9q22 0 42-8t34-23 23-35 9-42q0-23-8-42t-23-34-35-23-42-9q-23 0-42 8t-34 23-23 34-9 43Zm78 0q0-13 8-21t22-9q13 0 21 8t9 22q0 13-8 21t-22 9q-13 0-21-8t-9-22Z"/><glyph unicode="æ" glyph-name="ae" d="M182 147q0-20 13-30t33-11h12v82h-12q-20 0-33-10t-13-31Zm250 161q0 33-18 53t-48 25v-78h66ZM298 510q62 0 110-18t82-50 50-75 18-95v-84H366v-78q24 0 43 10t29 32l102-64q-30-54-86-78T313-14h-29q-49 0-90 9t-72 28-48 50-18 73v12q0 35 14 63t38 47 55 30 67 10h10v78q-20 0-39-14t-31-34l-82 86q33 42 84 64t126 22Z"/><glyph unicode="ç" glyph-name="ccedilla" d="M562 182q-16-82-71-134T341-12l-7-34h12q5 9 16 15t30 7q42 0 62-26t21-62q0-47-31-73t-79-27q-29 0-48 5t-36 15l26 68q23-14 50-14 15 0 24 7t10 19q0 9-5 15t-15 7q-17 0-20-14h-97v12l17 81q-47 6-87 25t-70 50-45 76-17 98v12q0 60 20 108t55 82 83 52 102 18q104 0 168-54t82-142l-124-32q-6 44-38 76t-90 32q-27 0-51-10t-42-28-28-45-11-60v-6q0-33 10-58t29-43 42-25 51-9q58 0 88 29t40 78l124-31Z"/><glyph unicode="è" glyph-name="egrave" d="M189 207q1-22 10-40t26-32 38-21 46-8q47 0 72 16t36 40l108-60q-9-19-25-39t-41-38-62-28-86-11q-56 0-102 18t-79 52-52 83-19 111v6q0 57 19 104t54 80 79 51 98 19q64 0 110-22t76-57 44-76 14-81v-67H189Zm119 189q-48 0-78-24t-39-57h234q-6 35-37 58t-80 23Zm310 174H516l-84 136h134l52-136Z"/><glyph unicode="é" glyph-name="eacute" d="M189 207q1-22 10-40t26-32 38-21 46-8q47 0 72 16t36 40l108-60q-9-19-25-39t-41-38-62-28-86-11q-56 0-102 18t-79 52-52 83-19 111v6q0 57 19 104t54 80 79 51 98 19q64 0 110-22t76-57 44-76 14-81v-67H189Zm119 189q-48 0-78-24t-39-57h234q-6 35-37 58t-80 23Zm3 310h134l-84-136H259l52 136Z"/><glyph unicode="ê" glyph-name="ecircumflex" d="M189 207q1-22 10-40t26-32 38-21 46-8q47 0 72 16t36 40l108-60q-9-19-25-39t-41-38-62-28-86-11q-56 0-102 18t-79 52-52 83-19 111v6q0 57 19 104t54 80 79 51 98 19q64 0 110-22t76-57 44-76 14-81v-67H189Zm119 189q-48 0-78-24t-39-57h234q-6 35-37 58t-80 23Zm51 174-43 88h-12l-43-88H140l84 136h172l84-136H359Z"/><glyph unicode="ë" glyph-name="edieresis" d="M189 207q1-22 10-40t26-32 38-21 46-8q47 0 72 16t36 40l108-60q-9-19-25-39t-41-38-62-28-86-11q-56 0-102 18t-79 52-52 83-19 111v6q0 57 19 104t54 80 79 51 98 19q64 0 110-22t76-57 44-76 14-81v-67H189Zm119 189q-48 0-78-24t-39-57h234q-6 35-37 58t-80 23Zm-22 247q0-20-7-37t-21-30-30-20-37-8q-20 0-37 7t-30 20-20 30-8 38q0 20 7 37t21 30 30 20 37 8q19 0 36-7t31-20 20-30 8-38Zm238 0q0-20-7-37t-21-30-30-20-37-8q-20 0-37 7t-30 20-20 30-8 38q0 20 7 37t21 30 30 20 37 8q19 0 36-7t31-20 20-30 8-38Z"/><glyph unicode="ì" glyph-name="igrave" d="M87 120h168v256H99v120h282V120h144V0H87v120Zm536 450H521l-84 136h134l52-136Z"/><glyph unicode="í" glyph-name="iacute" d="M87 120h168v256H99v120h282V120h144V0H87v120Zm232 586h134l-84-136H267l52 136Z"/><glyph unicode="î" glyph-name="icircumflex" d="M87 120h168v256H99v120h282V120h144V0H87v120Zm280 450-43 88h-12l-43-88H148l84 136h172l84-136H367Z"/><glyph unicode="ï" glyph-name="idieresis" d="M87 120h168v256H99v120h282V120h144V0H87v120Zm210 523q0-20-7-37t-21-30-30-20-37-8q-20 0-37 7t-30 20-20 30-8 38q0 20 7 37t21 30 30 20 37 8q19 0 36-7t31-20 20-30 8-38Zm238 0q0-20-7-37t-21-30-30-20-37-8q-20 0-37 7t-30 20-20 30-8 38q0 20 7 37t21 30 30 20 37 8q19 0 36-7t31-20 20-30 8-38Z"/><glyph unicode="ð" glyph-name="eth" d="m358 723-13-42q58-28 100-68t68-91 39-108 13-123q0-76-20-133t-55-95-83-58-106-19q-52 0-98 17t-80 51-55 80-21 108v12q0 61 18 108t48 81 70 50 84 17q47 0 75-11t49-35h18q-14 35-39 61t-60 45l-12-38-98 29 13 42q-16 4-32 6t-34 5l20 114q21-2 41-5t40-9l12 38 98-29Zm-56-617q58 0 94 36t36 112q0 63-36 99t-94 37q-58 0-93-38t-36-101v-6q0-66 35-102t94-37Z"/><glyph unicode="ñ" glyph-name="ntilde" d="M204 0H78v496h126v-74h18q17 42 55 65t89 23q36 0 67-11t56-36 37-61 14-88V0H414v282q0 53-25 83t-74 31q-56 0-83-37t-28-101V0Zm120 946q8-9 16-16t22-8q14 0 22 6t17 18l30 38 77-61-56-72q-18-23-39-33t-47-11q-20 0-38 9t-36 29q-8 9-16 16t-22 8q-14 0-22-6t-17-18l-30-38-77 61 56 72q19 24 40 34t46 10q20 0 38-9t36-29Z"/><glyph unicode="ò" glyph-name="ograve" d="M564 242q0-62-21-109t-57-80-82-50-98-17q-51 0-97 17t-83 49-57 80-21 110v12q0 61 21 108t57 81 82 50 98 17q51 0 97-17t83-50 57-80 21-109v-12ZM306 106q27 0 51 9t42 26 28 41 11 56v20q0 31-10 55t-29 42-42 26-51 9q-27 0-51-9t-42-26-28-41-11-56v-20q0-31 10-55t29-42 42-26 51-9Zm308 464H512l-84 136h134l52-136Z"/><glyph unicode="ó" glyph-name="oacute" d="M564 242q0-62-21-109t-57-80-82-50-98-17q-51 0-97 17t-83 49-57 80-21 110v12q0 61 21 108t57 81 82 50 98 17q51 0 97-17t83-50 57-80 21-109v-12ZM306 106q27 0 51 9t42 26 28 41 11 56v20q0 31-10 55t-29 42-42 26-51 9q-27 0-51-9t-42-26-28-41-11-56v-20q0-31 10-55t29-42 42-26 51-9Zm3 600h134l-84-136H257l52 136Z"/><glyph unicode="ô" glyph-name="ocircumflex" d="M564 242q0-62-21-109t-57-80-82-50-98-17q-51 0-97 17t-83 49-57 80-21 110v12q0 61 21 108t57 81 82 50 98 17q51 0 97-17t83-50 57-80 21-109v-12ZM306 106q27 0 51 9t42 26 28 41 11 56v20q0 31-10 55t-29 42-42 26-51 9q-27 0-51-9t-42-26-28-41-11-56v-20q0-31 10-55t29-42 42-26 51-9Zm49 464-43 88h-12l-43-88H136l84 136h172l84-136H355Z"/><glyph unicode="õ" glyph-name="otilde" d="M564 242q0-62-21-109t-57-80-82-50-98-17q-51 0-97 17t-83 49-57 80-21 110v12q0 61 21 108t57 81 82 50 98 17q51 0 97-17t83-50 57-80 21-109v-12ZM306 106q27 0 51 9t42 26 28 41 11 56v20q0 31-10 55t-29 42-42 26-51 9q-27 0-51-9t-42-26-28-41-11-56v-20q0-31 10-55t29-42 42-26 51-9Zm16 840q8-9 16-16t22-8q14 0 22 6t17 18l30 38 77-61-56-72q-18-23-39-33t-47-11q-20 0-38 9t-36 29q-8 9-16 16t-22 8q-14 0-22-6t-17-18l-30-38-77 61 56 72q19 24 40 34t46 10q20 0 38-9t36-29Z"/><glyph unicode="ö" glyph-name="odieresis" d="M564 242q0-62-21-109t-57-80-82-50-98-17q-51 0-97 17t-83 49-57 80-21 110v12q0 61 21 108t57 81 82 50 98 17q51 0 97-17t83-50 57-80 21-109v-12ZM306 106q27 0 51 9t42 26 28 41 11 56v20q0 31-10 55t-29 42-42 26-51 9q-27 0-51-9t-42-26-28-41-11-56v-20q0-31 10-55t29-42 42-26 51-9Zm-24 537q0-20-7-37t-21-30-30-20-37-8q-20 0-37 7t-30 20-20 30-8 38q0 20 7 37t21 30 30 20 37 8q19 0 36-7t31-20 20-30 8-38Zm238 0q0-20-7-37t-21-30-30-20-37-8q-20 0-37 7t-30 20-20 30-8 38q0 20 7 37t21 30 30 20 37 8q19 0 36-7t31-20 20-30 8-38Z"/><glyph unicode="÷" glyph-name="divide" d="M97 407h418V293H97v114Zm295-248q0-18-7-33t-18-28-27-18-34-7q-18 0-33 6t-27 19-19 27-7 34q0 18 7 33t18 28 27 18 34 7q18 0 33-6t27-19 19-27 7-34Zm0 382q0-18-7-33t-18-28-27-18-34-7q-18 0-33 6t-27 19-19 27-7 34q0 18 7 33t18 28 27 18 34 7q18 0 33-6t27-19 19-27 7-34Z"/><glyph unicode="ø" glyph-name="oslash" d="M564 242q0-62-21-109t-57-80-82-50-98-17h-12q-6 0-13 1l-19-60-110 34 19 59q-54 30-88 86T48 242v12q0 61 21 108t57 81 82 50 98 17h13q6 0 13-1l19 56 109-34-19-56q54-31 88-87t35-134v-12Zm-390-4q0-31 10-55t28-41l81 247q-51-4-85-38t-34-93v-20Zm264 20q0 58-36 94l-81-245q50 5 83 39t34 92v20Z"/><glyph unicode="ù" glyph-name="ugrave" d="M414 496h126V0H414v72h-18q-33-86-142-86-37 0-69 12t-56 37-37 62-14 89v310h126V212q0-53 25-82t75-30q57 0 83 36t27 100v260Zm197 74H509l-84 136h134l52-136Z"/><glyph unicode="ú" glyph-name="uacute" d="M414 496h126V0H414v72h-18q-33-86-142-86-37 0-69 12t-56 37-37 62-14 89v310h126V212q0-53 25-82t75-30q57 0 83 36t27 100v260ZM312 706h134l-84-136H260l52 136Z"/><glyph unicode="û" glyph-name="ucircumflex" d="M414 496h126V0H414v72h-18q-33-86-142-86-37 0-69 12t-56 37-37 62-14 89v310h126V212q0-53 25-82t75-30q57 0 83 36t27 100v260Zm196 74-43 88h-12l-43-88H391l84 136h172l84-136H610Z"/><glyph unicode="ü" glyph-name="udieresis" d="M414 496h126V0H414v72h-18q-33-86-142-86-37 0-69 12t-56 37-37 62-14 89v310h126V212q0-53 25-82t75-30q57 0 83 36t27 100v260ZM285 643q0-20-7-37t-21-30-30-20-37-8q-20 0-37 7t-30 20-20 30-8 38q0 20 7 37t21 30 30 20 37 8q19 0 36-7t31-20 20-30 8-38Zm238 0q0-20-7-37t-21-30-30-20-37-8q-20 0-37 7t-30 20-20 30-8 38q0 20 7 37t21 30 30 20 37 8q19 0 36-7t31-20 20-30 8-38Z"/><glyph unicode="ý" glyph-name="yacute" d="M414 496h126v-618q0-34-21-56t-56-22H168v120h219q27 0 27 30V72h-18q-33-86-142-86-37 0-69 12t-56 37-37 62-14 89v310h126V212q0-53 25-82t75-30q57 0 83 36t27 100v260ZM312 706h134l-84-136H260l52 136Z"/><glyph unicode="þ" glyph-name="thorn" d="M306 106q59 0 95 36t37 100v12q0 63-36 99t-96 37q-59 0-95-37t-37-99v-12q0-61 36-98t96-38ZM174-212H48v912h126V424h18q20 41 58 63t97 23q44 0 83-17t69-49 47-80 18-107v-18q0-61-17-108t-46-79-68-49-86-17q-34 0-59 7t-43 19-31 27-22 33h-18v-284Z"/><glyph unicode="ÿ" glyph-name="ydieresis" d="M414 496h126v-618q0-34-21-56t-56-22H168v120h219q27 0 27 30V72h-18q-33-86-142-86-37 0-69 12t-56 37-37 62-14 89v310h126V212q0-53 25-82t75-30q57 0 83 36t27 100v260ZM285 643q0-20-7-37t-21-30-30-20-37-8q-20 0-37 7t-30 20-20 30-8 38q0 20 7 37t21 30 30 20 37 8q19 0 36-7t31-20 20-30 8-38Zm238 0q0-20-7-37t-21-30-30-20-37-8q-20 0-37 7t-30 20-20 30-8 38q0 20 7 37t21 30 30 20 37 8q19 0 36-7t31-20 20-30 8-38Z"/><glyph unicode="–" glyph-name="endash" d="M67 332h478V218H67v114Z"/><glyph unicode="—" glyph-name="emdash" d="M6 332h600V218H6v114Z"/><glyph unicode="‘" glyph-name="quoteleft" d="M401 502q0-20-7-37t-21-29-30-20-37-8q-20 0-37 7t-30 20-20 30-8 37v122q0 38 25 64t64 26h64v-78h-48q-27 0-27-30v-12q4 2 9 2t10 1q42 0 67-26t26-69Z"/><glyph unicode="’" glyph-name="quoteright" d="M211 620q0 19 7 36t21 30 30 20 37 8q19 0 36-7t31-20 20-30 8-37V498q0-38-25-64t-64-26h-64v78h48q27 0 27 30v12q-8-3-17-3-20 0-37 7t-30 21-20 30-8 37Z"/><glyph unicode="‚" glyph-name="quotesinglbase" d="M211 95q0 19 7 36t21 30 30 20 37 8q19 0 36-7t31-20 20-30 8-37V-27q0-38-25-64t-64-26h-64v78h48q27 0 27 30V3q-8-3-17-3-20 0-37 7t-30 21-20 30-8 37Z"/><glyph unicode="“" glyph-name="quotedblleft" d="M514 502q0-20-7-37t-21-29-30-20-37-8q-20 0-37 7t-30 20-20 30-8 37v122q0 38 25 64t64 26h64v-78h-48q-27 0-27-30v-12q4 2 9 2t10 1q42 0 67-26t26-69Zm-226 0q0-20-7-37t-21-29-30-20-37-8q-20 0-37 7t-30 20-20 30-8 37v122q0 38 25 64t64 26h64v-78h-48q-27 0-27-30v-12q4 2 9 2t10 1q42 0 67-26t26-69Z"/><glyph unicode="”" glyph-name="quotedblright" d="M98 620q0 19 7 36t21 30 30 20 37 8q19 0 36-7t31-20 20-30 8-37V498q0-38-25-64t-64-26h-64v78h48q27 0 27 30v12q-8-3-17-3-20 0-37 7t-30 21-20 30-8 37Zm226 0q0 19 7 36t21 30 30 20 37 8q19 0 36-7t31-20 20-30 8-37V498q0-38-25-64t-64-26h-64v78h48q27 0 27 30v12q-8-3-17-3-20 0-37 7t-30 21-20 30-8 37Z"/><glyph unicode="„" glyph-name="quotedblbase" d="M98 95q0 19 7 36t21 30 30 20 37 8q19 0 36-7t31-20 20-30 8-37V-27q0-38-25-64t-64-26h-64v78h48q27 0 27 30V3q-8-3-17-3-20 0-37 7t-30 21-20 30-8 37Zm226 0q0 19 7 36t21 30 30 20 37 8q19 0 36-7t31-20 20-30 8-37V-27q0-38-25-64t-64-26h-64v78h48q27 0 27 30V3q-8-3-17-3-20 0-37 7t-30 21-20 30-8 37Z"/><glyph unicode="•" glyph-name="bullet" d="M162 350q0 30 11 56t31 45 46 31 56 12q30 0 56-11t45-31 31-46 12-56q0-30-11-56t-31-45-46-31-56-12q-30 0-56 11t-45 31-31 46-12 56Z"/><glyph unicode="‹" glyph-name="guilsinglleft" d="M426 0 180 152v192l246 152h6V354l-174-97v-18l174-97V0h-6Z"/><glyph unicode="›" glyph-name="guilsinglright" d="M180 0v142l174 97v18l-174 97v142h6l246-152V152L186 0h-6Z"/></font>
</defs>
</svg>
